:SAMPLES-PER-SECOND 30
:FULLY-SPECIFIED
:DEGREES
144
root  -46.8822 33.8273 5.43838 -73.0575 86.7945 -99.5099
RightUpLeg  -44.6787 -9.15043 7.7767
RightLeg  25.4703 -6.41977 -2.56332
RightFoot  3.00089 0.0349808 -0.219057
RightToes  -22.2234 -0.0943334 -0.193413
Spine  6.42129 1.03821 -0.404676
Spine1  12.5785 2.63684 -0.989946
HEad  -42.9143 4.22531 -2.5395
LeftShoulder1  -1.94126e-019 -3.10601e-018 -2.51263e-017
LeftArm  -16.0562 1.73747 -75.318
LeftForeArm  33.4644 -8.16079 -1.42566
LeftHand  -0.392026 0.413945 9.17776
RightShoulder  -4.96962e-017 0 -2.36833e-017
RightArm  -27.9651 -0.0872228 75.597
RightForeArm  65.887 7.75155 1.30817
RightHand  -0.267569 -3.06605 -12.8938
LeftUpLeg  -46.7032 7.51588 6.65307
LeftLeg  30.8975 13.2163 6.70137
LeftFoot  7.02104 -0.109058 1.93914
LeftToes  -29.2522 2.40056e-006 -7.68412e-008
145
root  -47.0436 33.5958 5.4331 -76.0702 86.873 -102.051
RightUpLeg  -46.0159 -9.27182 7.65773
RightLeg  28.5168 -6.35929 -2.94127
RightFoot  1.76371 0.0210046 -0.0166535
RightToes  -21.9827 -0.0937749 -0.192658
Spine  6.83668 1.44672 -0.453774
Spine1  13.0489 3.74705 -1.40397
HEad  -42.8959 4.15667 -2.53648
LeftShoulder1  -1.94126e-019 -3.10601e-018 -2.51263e-017
LeftArm  -9.50041 -8.67768 -77.113
LeftForeArm  33.737 -8.85325 -1.54909
LeftHand  -0.393412 -0.364238 8.03052
RightShoulder  -4.96962e-017 0 -2.36833e-017
RightArm  -23.8805 8.87224 76.8761
RightForeArm  64.6467 7.88598 1.33235
RightHand  -0.262761 -3.13011 -13.0032
LeftUpLeg  -47.7476 6.95642 6.85457
LeftLeg  33.4254 13.237 7.44917
LeftFoot  6.13159 -0.0861537 1.77002
LeftToes  -29.0723 2.40056e-006 -7.68412e-008
146
root  -47.1686 33.3873 5.41208 -82.8579 86.8705 -108.219
RightUpLeg  -46.8579 -9.2533 7.37644
RightLeg  31.0863 -6.63433 -3.437
RightFoot  0.757936 0.00920087 0.154107
RightToes  -22.0166 -0.0934543 -0.192177
Spine  7.24555 1.80566 -0.559566
Spine1  13.3918 4.60784 -1.64025
HEad  -42.5515 3.49135 -2.21719
LeftShoulder1  -1.94126e-019 -3.10601e-018 -2.51263e-017
LeftArm  -2.86303 -18.9485 -80.1047
LeftForeArm  37.3209 -9.01833 -1.57496
LeftHand  -0.415416 -0.380329 8.45379
RightShoulder  -4.96962e-017 0 -2.36833e-017
RightArm  -19.4302 17.7411 77.9653
RightForeArm  63.5542 8.17214 1.37621
RightHand  -0.278429 -3.01822 -13.179
LeftUpLeg  -48.4952 6.2584 7.09588
LeftLeg  35.6432 13.2102 8.10933
LeftFoot  5.42438 -0.0687356 1.61246
LeftToes  -29.1265 2.40056e-006 -7.68412e-008
147
root  -47.2495 33.2569 5.39527 -90.2286 86.8393 -114.828
RightUpLeg  -47.0053 -9.42593 7.13589
RightLeg  32.6805 -6.81619 -3.77464
RightFoot  0.14457 -0.000510665 0.294127
RightToes  -21.9173 -0.0934118 -0.19203
Spine  7.72044 1.79095 -0.562594
Spine1  13.8993 4.74149 -1.73366
HEad  -42.8612 3.5646 -2.45581
LeftShoulder1  -1.94126e-019 -3.10601e-018 -2.51263e-017
LeftArm  2.91278 -28.5663 -82.9141
LeftForeArm  37.9958 -9.7885 -1.71051
LeftHand  -0.423955 -1.15891 7.66199
RightShoulder  -4.96962e-017 0 -2.36833e-017
RightArm  -14.3738 27.2216 79.5867
RightForeArm  63.7387 8.52784 1.42148
RightHand  -0.318869 -2.68996 -13.3667
LeftUpLeg  -48.6371 6.08129 7.03115
LeftLeg  36.923 12.7988 8.25545
LeftFoot  4.92565 -0.0562549 1.46656
LeftToes  -28.7593 2.40056e-006 -7.68412e-008
148
root  -47.2888 33.2255 5.38406 -93.5861 86.6916 -117.376
RightUpLeg  -46.3925 -9.63556 7.09854
RightLeg  32.9716 -6.84549 -3.83631
RightFoot  0.0333399 -0.00499857 0.35884
RightToes  -21.8396 -0.0936878 -0.192278
Spine  7.87238 1.86426 -0.57062
Spine1  13.9108 4.97409 -1.70644
HEad  -42.9416 3.4225 -2.60883
LeftShoulder1  -1.94126e-019 -3.10601e-018 -2.51263e-017
LeftArm  7.99114 -36.8322 -86.5507
LeftForeArm  38.6499 -10.9153 -1.88117
LeftHand  -0.415831 -1.11044 7.56978
RightShoulder  -4.96962e-017 0 -2.36833e-017
RightArm  -10.0158 35.4613 81.4974
RightForeArm  63.773 9.49251 1.50798
RightHand  -0.379683 -2.19393 -13.5649
LeftUpLeg  -48.1163 6.22414 7.02384
LeftLeg  37.192 12.4264 8.10334
LeftFoot  4.71127 -0.0493632 1.3945
LeftToes  -28.6012 2.40056e-006 -7.68412e-008
149
root  -47.2866 33.2916 5.34802 -93.3298 86.5962 -116.191
RightUpLeg  -45.0591 -10.1406 7.18133
RightLeg  32.0932 -6.50228 -3.5159
RightFoot  0.409417 -0.00407268 0.345877
RightToes  -21.8454 -0.0943229 -0.192981
Spine  7.78079 1.95764 -0.62674
Spine1  13.6406 5.19998 -1.71609
HEad  -42.9658 3.31305 -2.74947
LeftShoulder1  -1.94126e-019 -3.10601e-018 -2.51263e-017
LeftArm  11.3586 -43.5415 -90.6605
LeftForeArm  37.2321 -12.8232 -2.07078
LeftHand  -0.421053 -0.947434 7.84682
RightShoulder  -4.96962e-017 0 -2.36833e-017
RightArm  -5.392 42.3378 83.8872
RightForeArm  61.998 11.4658 1.50399
RightHand  -0.413683 -1.86394 -13.4521
LeftUpLeg  -46.8894 6.64209 6.92553
LeftLeg  36.5332 12.133 7.72329
LeftFoot  4.71314 -0.0472068 1.38392
LeftToes  -28.3391 2.40056e-006 -7.68412e-008
150
root  -47.2429 33.417 5.29056 -90.1969 86.6154 -111.986
RightUpLeg  -43.1929 -10.7455 7.19802
RightLeg  30.5178 -5.95357 -3.01282
RightFoot  1.10669 -0.000593047 0.296113
RightToes  -22.1366 -0.0953573 -0.1942
Spine  7.38946 2.05821 -0.694064
Spine1  12.9457 5.43081 -1.75228
HEad  -42.7163 3.41892 -2.97837
LeftShoulder1  -1.94126e-019 -3.10601e-018 -2.51263e-017
LeftArm  15.0544 -48.0343 -94.5241
LeftForeArm  33.6327 -15.9808 -2.19381
LeftHand  -0.428232 -0.560835 8.46345
RightShoulder  -4.96962e-017 0 -2.36833e-017
RightArm  0.462147 47.2575 86.8759
RightForeArm  58.0682 14.5186 1.15705
RightHand  -0.427521 -1.69754 -13.2989
LeftUpLeg  -45.1258 7.17523 6.75481
LeftLeg  35.3401 11.8854 7.23201
LeftFoot  4.91501 -0.0495828 1.4326
LeftToes  -28.6351 2.40056e-006 -7.68412e-008
151
root  -47.1641 33.5944 5.18494 -84.8802 86.7929 -105.505
RightUpLeg  -40.8696 -11.2991 6.93757
RightLeg  28.3247 -5.38963 -2.47428
RightFoot  2.06344 0.00414908 0.228005
RightToes  -22.4208 -0.0968315 -0.195996
Spine  6.73257 2.14428 -0.789062
Spine1  11.9198 5.66686 -1.90715
HEad  -42.9198 3.79046 -3.39471
LeftShoulder1  -1.94126e-019 -3.10601e-018 -2.51263e-017
LeftArm  17.7181 -50.5232 -97.2859
LeftForeArm  30.3495 -20.4014 -2.74194
LeftHand  -0.410126 0.146029 9.13558
RightShoulder  -4.96962e-017 0 -2.36833e-017
RightArm  5.53433 50.1007 89.5769
RightForeArm  53.5628 18.9584 1.45968
RightHand  -0.35105 -2.34558 -13.125
LeftUpLeg  -42.8845 7.69534 6.41158
LeftLeg  33.5942 11.8237 6.71806
LeftFoot  5.3146 -0.057606 1.55878
LeftToes  -28.6118 2.40056e-006 -7.68412e-008
152
root  -47.0484 33.785 5.03884 -79.5827 86.971 -98.8702
RightUpLeg  -38.1804 -11.792 6.44337
RightLeg  25.908 -4.90205 -2.00493
RightFoot  3.15424 0.0100535 0.142996
RightToes  -22.9966 -0.0987857 -0.200468
Spine  5.87773 2.18771 -0.860724
Spine1  10.6616 5.76404 -1.99343
HEad  -43.5597 4.04666 -3.64434
LeftShoulder1  -1.94126e-019 -3.10601e-018 -2.51263e-017
LeftArm  19.0512 -51.2563 -98.4912
LeftForeArm  27.6465 -26.4564 -4.10921
LeftHand  -0.44249 0.421171 10.3749
RightShoulder  -4.96962e-017 0 -2.36833e-017
RightArm  9.03779 51.2456 91.2907
RightForeArm  50.2125 24.252 2.58697
RightHand  -0.364138 -2.3368 -13.5901
LeftUpLeg  -40.332 8.26713 5.96908
LeftLeg  31.6621 11.7055 6.14708
LeftFoot  5.61844 -0.0637027 1.64565
LeftToes  -28.1564 2.40056e-006 -7.68412e-008
153
root  -46.8299 33.9183 4.8628 -70.4548 87.0751 -88.1642
RightUpLeg  -35.4235 -12.2464 5.81719
RightLeg  24.1601 -4.27655 -1.59915
RightFoot  3.81481 0.0154332 0.065202
RightToes  -23.7579 -0.103383 -0.206329
Spine  5.20714 1.96663 -0.883913
Spine1  9.57767 4.91544 -1.71175
HEad  -44.4281 4.17811 -3.94982
LeftShoulder1  -1.94126e-019 -3.10601e-018 -2.51263e-017
LeftArm  17.9078 -50.0448 -96.5635
LeftForeArm  29.3512 -36.8538 -6.53131
LeftHand  -0.189177 4.039 15.4578
RightShoulder  -4.96962e-017 0 -2.36833e-017
RightArm  11.0247 50.7138 92.8972
RightForeArm  46.4171 31.1637 4.2029
RightHand  0.383151 -8.45318 -15.3254
LeftUpLeg  -37.7207 8.98143 5.58738
LeftLeg  30.512 11.5214 5.76419
LeftFoot  5.38075 -0.0562628 1.51362
LeftToes  -28.0415 2.40056e-006 -7.68412e-008
